<svg xmlns="http://www.w3.org/2000/svg" viewBox="0 0 1000 1000" role="img" aria-label="D logo with sparkle">
  <!-- 基于 4e8aca3...jpg 几何重建：直角精确、曲线平滑无拐点、四角星为平头。fill=currentColor 可由 CSS 的 color 控制 -->
  <path fill="currentColor" fill-rule="nonzero" d="M218.00 251.00 L519.00 251.00 C583.00 251.00 751.50 288.00 751.50 500.00 C751.50 712.00 583.00 748.00 519.00 748.00 L218.00 748.00 Z M265.00 264.00 L265.00 735.00 L520.00 735.00 C580.00 735.00 688.00 692.00 688.00 500.00 C688.00 308.00 580.00 264.00 520.00 264.00 L265.00 264.00 Z M265.00 493.00 L512.00 493.00 L512.00 506.00 L265.00 506.00 Z M502.00 330.00 L511.00 330.00 C508.30 431.70 549.10 497.30 613.00 494.00 L613.00 505.00 C549.10 501.70 508.30 567.30 511.00 669.00 L502.00 669.00 C504.70 567.30 463.90 501.70 400.00 505.00 L400.00 494.00 C463.90 497.30 504.70 431.70 502.00 330.00 Z"/>
</svg>
